<svg xmlns="http://www.w3.org/2000/svg" width="670.16394mm" height="400mm" viewBox="0 0 670.16394 400"><path d="M216.863 445.734c236.264-23.504 244.208-264.26 244.208-264.26-116.223 16.55-244.208-23.385-244.208-23.385S88.846 198.023-27.37 181.474c0 0 7.962 240.756 244.233 264.26" style="fill:#fff;fill-opacity:1;fill-rule:nonzero;stroke:none;stroke-width:8.46064" transform="matrix(1.34457 0 0 1.34457 43.5 -205.804)"/><path d="M-22.183 187.05c.304 3.748.88 9.273 1.853 16.092 1.988 13.732 5.685 32.81 12.53 54.283 13.664 42.98 39.85 95.293 89.725 133.28 33.208 25.281 76.907 44.334 134.939 50.198 54.393-5.5 96.188-22.607 128.567-45.535 32.438-22.988 55.392-51.906 71.67-81.062 30.433-54.444 37.354-109.76 38.81-127.29-18.318 2.31-36.821 3.266-55.029 3.266-89.996-.01-172.275-23.656-184.018-27.176-11.735 3.52-94.04 27.167-184.053 27.176-18.165 0-36.677-.957-54.994-3.266zm238.556 263.455c-59.842-5.939-105.606-25.745-140.27-52.142-34.662-26.414-58.234-59.36-74.25-91.434-31.998-64.149-33.978-124.913-34.011-125.31l-.195-5.712 5.652.804c19.696 2.809 39.756 3.968 59.512 3.968 83.413.017 160.887-20.855 178.748-26.016 2.563-.753 3.875-1.151 3.875-1.168l1.43-.432 1.43.432c0 .017 1.32.414 3.874 1.168a591.39 591.39 0 0 0 11.143 3.062c9.654 2.547 23.546 5.94 40.442 9.358 33.75 6.794 79.496 13.596 127.13 13.596 19.755 0 39.832-1.158 59.511-3.968l5.678-.804-.187 5.711c-.035.312-1.16 34.553-15.212 78.726-14.037 44.148-41.034 98.364-93.076 138.019-34.663 26.397-80.401 46.203-140.26 52.142l-.474.052z" style="fill:#bdbcbc;fill-opacity:1;fill-rule:nonzero;stroke:none;stroke-width:8.46064" transform="matrix(1.34457 0 0 1.34457 43.5 -205.804)"/><path d="m138.662 350.645-23.182-38.953 19.831-29.121h-33.258l-16.346 30.12v-30.12H52.448v68.074h33.259v-35.611l15.762 35.61zM289.024 350.645l-25.88-36.804 23.444-31.27h-30.806l-8.807 14.526-8.105-14.526h-34.638l22.818 32.954-25.433 35.12h33.69l8.749-16.245 8.173 16.245zM381.27 350.645l-25.897-36.813 23.47-31.261h-30.84l-8.799 14.526-8.105-14.526h-34.63l22.819 32.945-25.475 35.129h33.75l8.689-16.245 8.198 16.245zM187.505 350.645h-33.233V282.57h33.233zM187.505 263.602l-33.233 11.92v-12.106l33.233-11.947zM154.974 237.568c-8.537 0-14.24-6.557-14.24-16.261 0-9.654 5.83-16.363 14.485-16.363 3.537 0 6.464 1.067 8.825 2.69l-.499 3.199c-2.47-1.768-5.203-3.055-8.384-3.055-6.921 0-11.22 5.466-11.22 13.444 0 8.055 4.324 13.487 11.169 13.487 3.376 0 6.422-1.33 8.968-3.3l.465 3.02c-2.369 1.785-5.82 3.14-9.569 3.14M182.471 225.19c-8.774.888-11.253 3.012-11.253 6.041 0 2.403 1.667 3.639 4.028 3.639 2.41 0 5.05-1.33 7.225-3.368zm.703 11.845-.516-2.97c-2.073 1.912-4.68 3.444-7.894 3.444-3.875 0-6.65-2.142-6.65-6.1 0-5.246 4.239-7.682 14.357-8.689v-1.446c0-3.029-1.793-4.298-4.627-4.298-2.657 0-5.246.804-7.691 1.98l-.44-2.783c2.606-1.124 5.144-1.954 8.308-1.954 4.975 0 7.505 2.31 7.505 6.887v15.931zM191.93 237.035V204.03l3.071-.559v33.564zM208.513 237.416c-3.511 0-5.813-1.37-5.813-5.482v-14.595h-3.426v-2.631h3.426v-7.742l3.063-.525v8.266h5.153l.43 2.631h-5.583v14.07c0 2.293.922 3.266 3.308 3.266.719 0 1.574-.168 2.09-.245l.457 2.606c-.634.192-1.794.381-3.105.381M223.446 216.713c-3.486 0-5.77 2.597-6.371 6.92h12.166c-.33-4.018-2.225-6.92-5.795-6.92m9.027 9.366h-15.55c.093 5.482 2.656 8.731 7.14 8.731 2.953 0 5.576-1.328 7.86-3.308l.491 2.834c-2.225 1.895-5.093 3.173-8.537 3.173-5.888 0-10.06-3.968-10.06-11.676 0-7.166 4.147-11.616 9.629-11.616 6.1 0 9.027 5 9.027 11.219zM249.81 237.365l-6.422-9.552-6.041 9.222h-3.35l7.792-11.48-7.336-10.627 3.08-.62 5.914 8.842 5.668-8.443h3.342l-7.36 10.761 7.775 11.32zM91.773 237.67c-10.364 0-16.067-6.803-16.067-16.905 0-10.118 6.193-16.972 16.253-16.972 4.019 0 7.378.94 10 2.42l-1.1 7.031c-2.436-1.556-5.33-2.775-8.688-2.775-5.644 0-8.385 4.146-8.385 10.263 0 6.134 2.834 10.466 8.478 10.466 1.793 0 3.063-.331 4.39-1.049v-5.847h-5.668l-.947-5.99h13.655v15.897c-3.41 2.233-7.411 3.46-11.92 3.46M119.21 237.416c-4.39 0-8.08-.94-11.396-2.453l1.185-6.904c3.35 1.8 7.107 3.028 10.364 3.028 2.318 0 3.934-1.007 3.934-2.935 0-1.845-.939-2.682-5.55-4.459-6.531-2.496-9.357-4.628-9.357-10.009 0-6.303 4.907-9.654 11.16-9.654 4.264 0 7.013.796 9.847 2.183l-1.235 6.81c-2.944-1.7-6.024-2.648-8.52-2.648-2.47 0-3.63 1.032-3.63 2.53 0 1.676.88 2.487 4.933 4.053 7.141 2.58 9.958 5.05 9.958 10.246 0 7.106-5.194 10.211-11.692 10.211M272.687 237.255c-3.503 0-6.312-.88-8.326-1.971l.458-3.19c1.92 1.235 4.822 2.387 8.02 2.387 3.69 0 6.464-2.099 6.464-5.66 0-3.097-1.557-4.637-6.345-6.735-6.007-2.64-8.165-4.637-8.165-9.096 0-4.746 3.807-7.885 8.994-7.885 2.953 0 5.296.693 6.92 1.64l-.44 3.14a11.771 11.771 0 0 0-6.607-1.998c-3.689 0-5.745 2.182-5.745 4.923 0 2.869 1.506 4.24 6.329 6.372 5.838 2.538 8.198 4.814 8.198 9.416 0 5.373-4.239 8.655-9.755 8.655M295.454 217.297c-3.359 0-5.541 2.512-6.15 6.675h11.768c-.339-3.875-2.149-6.675-5.618-6.675m8.698 9.027h-14.975c.1 5.305 2.546 8.444 6.861 8.444 2.885 0 5.398-1.286 7.623-3.207l.457 2.733c-2.157 1.828-4.924 3.046-8.257 3.046-5.644 0-9.68-3.824-9.68-11.236 0-6.92 4.003-11.219 9.274-11.219 5.888 0 8.697 4.831 8.697 10.796zM317.274 217.45c-4.28 0-6.599 3.595-6.599 8.688 0 4.966 2.36 8.664 6.6 8.664 4.373 0 6.692-3.554 6.692-8.664 0-4.958-2.378-8.689-6.693-8.689m0 19.89c-5.5 0-9.653-4.102-9.653-11.2 0-7.142 4.238-11.254 9.653-11.254 5.593 0 9.79 4.112 9.79 11.253 0 7.099-4.29 11.202-9.79 11.202M346.311 236.9l-.482-3.198c-2.386 2.098-4.84 3.638-7.75 3.638-4.323 0-6.43-2.496-6.43-6.6v-15.39h3.02v14.84c0 2.776 1.26 4.417 3.994 4.417 2.284 0 4.602-1.37 6.98-3.68V215.35h2.986V236.9zM355.06 236.9v-32.167l2.96-.55V236.9zM127.443 398.921h-2.098l-8.968-22.894 2.276-.516 7.783 20.432 7.623-20.204h2.412zM143.087 384.521c-3.173 0-4.848 2.631-4.848 6.388 0 3.613 1.734 6.345 4.848 6.345 3.198 0 4.907-2.597 4.907-6.345 0-3.664-1.735-6.388-4.907-6.388m0 14.603c-4.044 0-7.09-3.037-7.09-8.215 0-5.246 3.096-8.25 7.09-8.25 4.103 0 7.157 3.004 7.157 8.25 0 5.178-3.138 8.215-7.157 8.215M153.967 398.786v-23.572l2.2-.405v23.977zM161.108 398.786v-23.572l2.191-.405v23.977zM173.875 384.428c-2.47 0-4.086 1.828-4.51 4.873h8.597c-.229-2.817-1.557-4.873-4.087-4.873m6.37 6.608h-10.99c.078 3.866 1.879 6.176 5.035 6.176 2.115 0 3.942-.923 5.575-2.343l.355 1.998c-1.59 1.335-3.612 2.259-6.049 2.259-4.163 0-7.124-2.81-7.124-8.266 0-5.077 2.927-8.199 6.828-8.199 4.298 0 6.37 3.537 6.37 7.911zM189.18 400.723c-1.125 3.088-2.538 4.053-4.89 4.053-.321 0-.61-.052-.837-.096l-.305-1.938c.33.052.787.144 1.278.144 1.311 0 2.09-.583 2.699-2.106l.745-1.888-5.99-15.686 2.123-.421 4.908 13.469 4.678-13.25h2.268zM205.594 384.614c-1.777 0-3.224 1.118-4.645 2.741v9.104c1.007.381 2.039.6 3.663.6 3.122 0 5.33-2.022 5.33-6.515 0-3.832-1.86-5.93-4.348-5.93m-1.108 14.374c-2.192 0-3.96-.431-5.728-1.04v-22.735l2.191-.405v10.237c1.125-1.218 2.665-2.386 4.882-2.386 3.443 0 6.337 2.496 6.337 7.775 0 5.762-3.308 8.554-7.682 8.554M224.833 390.401c-6.201.635-7.936 2.132-7.936 4.281 0 1.674 1.185 2.572 2.835 2.572 1.709 0 3.595-.94 5.101-2.386zm.525 8.385-.389-2.123c-1.455 1.396-3.291 2.462-5.559 2.462-2.732 0-4.712-1.513-4.712-4.315 0-3.689 3.003-5.431 10.136-6.142v-1.024c0-2.166-1.252-3.063-3.258-3.063-1.878 0-3.705.576-5.448 1.422l-.305-1.97c1.853-.787 3.646-1.373 5.888-1.373 3.503 0 5.305 1.633 5.305 4.874v11.252zM231.593 398.786v-23.572l2.166-.405v23.977zM238.726 398.786v-23.572l2.166-.405v23.977zM257.508 377.829v20.957h-2.259v-20.957h-7.47v-2.09h16.938l.346 2.09zM269.472 384.428c-2.437 0-4.045 1.828-4.501 4.873h8.621c-.238-2.817-1.582-4.873-4.12-4.873m6.404 6.608h-10.99c.06 3.866 1.87 6.176 5.026 6.176 2.098 0 3.934-.923 5.584-2.343l.346 1.998c-1.574 1.335-3.612 2.259-6.05 2.259-4.145 0-7.106-2.81-7.106-8.266 0-5.077 2.927-8.199 6.785-8.199 4.315 0 6.405 3.537 6.405 7.911zM288.508 390.401c-6.201.635-7.944 2.132-7.944 4.281 0 1.674 1.159 2.572 2.825 2.572 1.701 0 3.57-.94 5.12-2.386zm.491 8.385-.372-2.123c-1.464 1.396-3.3 2.462-5.542 2.462-2.767 0-4.73-1.513-4.73-4.315 0-3.689 3.02-5.431 10.153-6.142v-1.024c0-2.166-1.244-3.063-3.274-3.063-1.879 0-3.706.576-5.449 1.422l-.27-1.97c1.836-.787 3.63-1.373 5.837-1.373 3.529 0 5.322 1.633 5.322 4.874v11.252zM315.125 398.786v-10.89c0-2.02-.82-3.282-2.851-3.282-1.65 0-3.274 1.007-5.017 2.724v11.448h-2.166v-10.89c0-2.02-.846-3.282-2.894-3.282-1.633 0-3.29 1.007-5 2.665v11.507h-2.191v-15.78h1.7l.38 2.26c1.71-1.523 3.47-2.606 5.568-2.606 2.437 0 3.765.99 4.349 2.741 1.734-1.573 3.57-2.74 5.71-2.74 3.156 0 4.62 1.793 4.62 4.822v11.303z" style="fill:#00698b;fill-opacity:1;fill-rule:nonzero;stroke:none;stroke-width:8.46064" transform="matrix(1.34457 0 0 1.34457 43.5 -205.804)"/></svg>